<?xml version="1.0" encoding="UTF-8"?>
<svg width="24px" height="24px" viewBox="0 0 24 24" version="1.1" xmlns="http://www.w3.org/2000/svg" xmlns:xlink="http://www.w3.org/1999/xlink">
    <!-- Generator: Sketch 64 (93537) - https://sketch.com -->
    <title>tab-icon-everyone-selected</title>
    <desc>Created with Sketch.</desc>
    <g id="tab-icon-everyone-selected" stroke="none" stroke-width="1" fill="none" fill-rule="evenodd">
        <path d="M12,0 C5.372583,0 0,5.372583 0,12 C0,18.627417 5.372583,24 12,24 C18.627417,24 24,18.627417 24,12 C23.9928352,5.37555305 18.624447,0.00716484761 12,0 Z M13.07,15.463 L7.2,17.774 C7.10929936,17.8114801 7.0121394,17.8308442 6.914,17.831 C6.66597013,17.8285675 6.43518482,17.7036621 6.29750363,17.4973404 C6.15982245,17.2910188 6.13305508,17.0299695 6.226,16.8 L8.537,10.93 C8.60079473,10.7757882 8.73732288,10.6635711 8.90096839,10.630842 C9.0646139,10.5981128 9.23380032,10.6491871 9.352,10.767 L13.233,14.647 C13.3512705,14.7651847 13.4026401,14.9346642 13.3698883,15.0986241 C13.3371365,15.2625841 13.2245984,15.3993222 13.07,15.463 L13.07,15.463 Z M17.77,7.205 L15.459,13.069 C15.3952329,13.2238021 15.2582199,13.3364155 15.094,13.369 C14.9302218,13.4015024 14.7610278,13.3501065 14.643,13.232 L10.763,9.353 C10.6447295,9.23481527 10.5933599,9.0653358 10.6261117,8.90137586 C10.6588635,8.73741592 10.7714016,8.60067782 10.926,8.537 L16.8,6.226 C17.0799462,6.11078496 17.4017107,6.17516696 17.6157719,6.38922812 C17.829833,6.60328928 17.894215,6.92505383 17.779,7.205 L17.77,7.205 Z" id="compass" fill="#FF264E" fill-rule="nonzero"></path>
    </g>
</svg>