<?xml version="1.0" encoding="UTF-8"?>
<svg width="24px" height="24px" viewBox="0 0 24 24" version="1.1" xmlns="http://www.w3.org/2000/svg" xmlns:xlink="http://www.w3.org/1999/xlink">
    <!-- Generator: Sketch 64 (93537) - https://sketch.com -->
    <title>tab-icon-everyone</title>
    <desc>Created with Sketch.</desc>
    <g id="tab-icon-everyone" stroke="none" stroke-width="1" fill="none" fill-rule="evenodd">
        <g id="compass" fill-rule="nonzero">
            <path d="M11.9989184,0.999999415 C8.96243388,1 6.21243388,2.23121694 4.22182541,4.22182541 C2.23121694,6.21243388 1,8.96243388 1,12 C1,15.0375661 2.23121694,17.7875661 4.22182541,19.7781746 C6.21243388,21.7687831 8.96243388,23 12,23 C15.0375661,23 17.7875661,21.7687831 19.7781746,19.7781746 C21.7687831,17.7875661 23,15.0375661 23,12 C22.9967164,8.96457803 21.7646976,6.21594959 19.774374,4.22562599 C17.7840504,2.23530239 15.035422,1.00328363 11.9989184,0.999999415 Z" id="Path" stroke="#000000" stroke-width="2"></path>
            <path d="M13.07,15.463 L7.2,17.774 C7.10929936,17.8114801 7.0121394,17.8308442 6.914,17.831 C6.66597013,17.8285675 6.43518482,17.7036621 6.29750363,17.4973404 C6.15982245,17.2910188 6.13305508,17.0299695 6.226,16.8 L8.537,10.93 C8.60079473,10.7757882 8.73732288,10.6635711 8.90096839,10.630842 C9.0646139,10.5981128 9.23380032,10.6491871 9.352,10.767 L13.233,14.647 C13.3512705,14.7651847 13.4026401,14.9346642 13.3698883,15.0986241 C13.3371365,15.2625841 13.2245984,15.3993222 13.07,15.463 L13.07,15.463 Z" id="Path" fill="#000000"></path>
            <path d="M17.77,7.205 L15.459,13.069 C15.3952329,13.2238021 15.2582199,13.3364155 15.094,13.369 C14.9302218,13.4015024 14.7610278,13.3501065 14.643,13.232 L10.763,9.353 C10.6447295,9.23481527 10.5933599,9.0653358 10.6261117,8.90137586 C10.6588635,8.73741592 10.7714016,8.60067782 10.926,8.537 L16.8,6.226 C17.0799462,6.11078496 17.4017107,6.17516696 17.6157719,6.38922812 C17.829833,6.60328928 17.894215,6.92505383 17.779,7.205 L17.77,7.205 Z" id="Path" fill="#000000"></path>
        </g>
    </g>
</svg>